<svg width="72" height="28" fill="none" xmlns="http://www.w3.org/2000/svg"><path d="M10.12 10.988V9.913a9.457 9.457 0 0 0-1.136-.075c-4.631 0-8.41 3.763-8.41 8.406 0 2.837 1.418 5.36 3.585 6.884a8.347 8.347 0 0 1-2.256-5.719c.015-4.584 3.675-8.317 8.217-8.421Z" fill="#00FAF0"/><path d="M10.314 23.217a3.834 3.834 0 0 0 3.824-3.688V1.238h3.347A5.927 5.927 0 0 1 17.38.073H12.81v18.291a3.834 3.834 0 0 1-3.825 3.688 3.738 3.738 0 0 1-1.777-.448 3.809 3.809 0 0 0 3.107 1.613ZM23.743 7.45V6.433a6.301 6.301 0 0 1-3.466-1.03 6.492 6.492 0 0 0 3.466 2.045Z" fill="#00FAF0"/><path d="M20.293 5.405a6.332 6.332 0 0 1-1.569-4.166H17.5a6.426 6.426 0 0 0 2.793 4.166ZM8.984 14.392a3.837 3.837 0 0 0-3.84 3.838c0 1.478.837 2.747 2.062 3.389a3.86 3.86 0 0 1-.732-2.24 3.837 3.837 0 0 1 3.84-3.837c.388 0 .776.06 1.135.18v-4.66a9.455 9.455 0 0 0-1.135-.074h-.195v3.583a3.548 3.548 0 0 0-1.135-.179Z" fill="#FE2C55"/><path d="M23.744 7.45v3.553c-2.375 0-4.557-.762-6.35-2.046v9.273c0 4.628-3.764 8.406-8.41 8.406a8.339 8.339 0 0 1-4.81-1.523c1.538 1.643 3.72 2.688 6.154 2.688 4.632 0 8.411-3.763 8.411-8.407v-9.272a10.882 10.882 0 0 0 6.35 2.046v-4.57a7.886 7.886 0 0 1-1.345-.149Z" fill="#FE2C55"/><path d="M17.394 18.23V8.958a10.882 10.882 0 0 0 6.35 2.045V7.45a6.437 6.437 0 0 1-3.467-2.046 6.282 6.282 0 0 1-2.779-4.166h-3.346V19.53a3.834 3.834 0 0 1-3.824 3.688 3.793 3.793 0 0 1-3.108-1.598 3.837 3.837 0 0 1-2.061-3.39 3.837 3.837 0 0 1 3.839-3.836c.388 0 .777.06 1.135.179v-3.584c-4.541.105-8.201 3.838-8.201 8.392a8.32 8.32 0 0 0 2.255 5.718 8.374 8.374 0 0 0 4.811 1.523c4.616.015 8.396-3.762 8.396-8.391Z" fill="#fff"/><path fill-rule="evenodd" clip-rule="evenodd" d="M47.276 4.976H45.12v11.338l-7.15.618v2.288l7.15-.602v5.093h2.156v-5.293l2.205-.2V15.93l-2.206.2V4.976Zm-12.3 0h-2.172v3.19H30.28v2.17h2.523v4.425l-2.523.368v2.287l2.523-.367v3.79c0 .301-.251.552-.552.552h-1.82v2.17h2.722a1.825 1.825 0 0 0 1.821-1.82v-5.01l2.206-.333V14.11l-2.206.334v-4.09h2.206V8.181h-2.206V4.976ZM38.87 6.58 44 7.498v2.288l-5.13-.902V6.58ZM44 12.257l-5.13-.919v2.305l5.13.918v-2.304Zm23.439-2.722-.334 1.77h4.243v2.12H52.185v-2.12h4.344l-.284-1.77h2.305l.268 1.77h5.98l.352-1.77h2.289Zm3.308-3.056h-7.268l-.367-1.503h-2.824l.368 1.503h-7.87v2.104h17.961V6.479Zm-15.003 8.5H67.79c1.019 0 1.82.819 1.82 1.82v4.96c0 1.002-.818 1.82-1.82 1.82H55.744a1.825 1.825 0 0 1-1.821-1.82v-4.96c0-1.001.818-1.82 1.82-1.82Zm11.294 1.97H56.512c-.3 0-.551.235-.534.552v.885h11.611v-.885c0-.3-.25-.551-.551-.551Zm-10.526 4.676h10.526c.3 0 .535-.25.535-.55v-.902H55.96v.901c0 .301.25.551.551.551Z" fill="#fff"/></svg>